<svg width="900" height="520" viewBox="0 0 900 520" fill="none" xmlns="http://www.w3.org/2000/svg">
  <rect width="900" height="520" rx="32" fill="url(#paint0_linear)" />
  <ellipse cx="450" cy="436" rx="210" ry="46" fill="#BFDBFE" fill-opacity="0.4" />
  <rect x="354" y="102" width="192" height="310" rx="40" fill="#FEFEFE" />
  <rect x="374" y="72" width="152" height="54" rx="18" fill="#E2E8F0" />
  <rect x="386" y="154" width="128" height="132" rx="16" fill="url(#paint1_linear)" />
  <rect x="386" y="299" width="128" height="72" rx="14" fill="#F0FDF4" />
  <path d="M414 334H487" stroke="#22C55E" stroke-width="8" stroke-linecap="round" />
  <path d="M406 185H492" stroke="#0F172A" stroke-width="10" stroke-linecap="round" />
  <path d="M406 211H466" stroke="#0F172A" stroke-width="7" stroke-linecap="round" />
  <path d="M409 238H468" stroke="#0F172A" stroke-width="7" stroke-linecap="round" />
  <text x="449.5" y="194" fill="#0F172A" font-size="22" font-family="Poppins, Arial" font-weight="700" text-anchor="middle">
    BERBERINA
  </text>
  <text x="449.5" y="326" fill="#166534" font-size="22" font-family="Poppins, Arial" font-weight="700" text-anchor="middle">
    SOPORTE
  </text>
  <text x="449.5" y="352" fill="#166534" font-size="18" font-family="Poppins, Arial" font-weight="600" text-anchor="middle">
    METABOLICO
  </text>
  <circle cx="242" cy="162" r="64" fill="#DCFCE7" />
  <circle cx="662" cy="146" r="52" fill="#E0F2FE" />
  <circle cx="684" cy="334" r="76" fill="#DBEAFE" />
  <circle cx="212" cy="336" r="70" fill="#ECFEFF" />
  <defs>
    <linearGradient id="paint0_linear" x1="94" y1="52" x2="816" y2="466" gradientUnits="userSpaceOnUse">
      <stop stop-color="#E0F2FE" />
      <stop offset="1" stop-color="#ECFDF5" />
    </linearGradient>
    <linearGradient id="paint1_linear" x1="391" y1="160" x2="514" y2="279" gradientUnits="userSpaceOnUse">
      <stop stop-color="#BBF7D0" />
      <stop offset="1" stop-color="#7DD3FC" />
    </linearGradient>
  </defs>
</svg>
