<svg width="800" height="450" viewBox="0 0 800 450" fill="none" xmlns="http://www.w3.org/2000/svg">
  <rect width="800" height="450" rx="28" fill="url(#paint0_linear)" />
  <ellipse cx="170" cy="318" rx="130" ry="90" fill="#E0F2FE" />
  <ellipse cx="632" cy="114" rx="120" ry="86" fill="#DCFCE7" />
  <rect x="266" y="82" width="270" height="288" rx="34" fill="white" fill-opacity="0.95" />
  <rect x="308" y="136" width="186" height="132" rx="20" fill="#DBEAFE" />
  <path d="M355 192C355 165.49 376.49 144 403 144C429.51 144 451 165.49 451 192V214C451 240.51 429.51 262 403 262C376.49 262 355 240.51 355 214V192Z" fill="#F0F9FF" />
  <path d="M385 214L402 197L420 214" stroke="#22C55E" stroke-width="10" stroke-linecap="round" stroke-linejoin="round" />
  <path d="M403 196V236" stroke="#22C55E" stroke-width="10" stroke-linecap="round" />
  <circle cx="338" cy="110" r="14" fill="#38BDF8" />
  <circle cx="466" cy="110" r="14" fill="#22C55E" />
  <circle cx="403" cy="109" r="14" fill="#F59E0B" />
  <defs>
    <linearGradient id="paint0_linear" x1="58" y1="35" x2="760" y2="432" gradientUnits="userSpaceOnUse">
      <stop stop-color="#ECFEFF" />
      <stop offset="1" stop-color="#F8FAFC" />
    </linearGradient>
  </defs>
</svg>
