<svg width="800" height="450" viewBox="0 0 800 450" fill="none" xmlns="http://www.w3.org/2000/svg">
  <rect width="800" height="450" rx="28" fill="url(#bg)" />
  <circle cx="118" cy="84" r="82" fill="#DBEAFE" />
  <circle cx="678" cy="364" r="108" fill="#DCFCE7" />
  <rect x="72" y="268" width="656" height="98" rx="22" fill="#E0F2FE" />
  <path d="M96 331C164 300 220 300 294 331C362 360 428 360 496 331C560 304 624 304 704 331" stroke="#7DD3FC" stroke-width="10" stroke-linecap="round" />
  <rect x="466" y="84" width="236" height="136" rx="18" fill="#FFFFFF" fill-opacity="0.95" />
  <path d="M500 184L548 150L589 169L638 128L676 144" stroke="#22C55E" stroke-width="10" stroke-linecap="round" stroke-linejoin="round" />
  <circle cx="500" cy="184" r="8" fill="#22C55E" />
  <circle cx="548" cy="150" r="8" fill="#22C55E" />
  <circle cx="589" cy="169" r="8" fill="#22C55E" />
  <circle cx="638" cy="128" r="8" fill="#22C55E" />
  <circle cx="676" cy="144" r="8" fill="#22C55E" />
  <ellipse cx="280" cy="326" rx="92" ry="18" fill="#BFDBFE" />
  <circle cx="284" cy="178" r="36" fill="#FCD7B8" />
  <path d="M254 170C254 144 274 128 297 132C314 135 325 147 325 162C325 171 322 177 317 183H254V170Z" fill="#1E293B" />
  <rect x="246" y="214" width="84" height="86" rx="30" fill="#22C55E" />
  <path d="M246 246L214 268L230 292L262 264" fill="#16A34A" />
  <path d="M330 250L364 240L372 268L334 276" fill="#16A34A" />
  <rect x="228" y="290" width="30" height="64" rx="14" fill="#0EA5E9" />
  <rect x="300" y="292" width="30" height="62" rx="14" fill="#0EA5E9" />
  <rect x="220" y="350" width="48" height="14" rx="7" fill="#334155" />
  <rect x="292" y="350" width="48" height="14" rx="7" fill="#334155" />
  <circle cx="390" cy="228" r="30" fill="#ECFEFF" stroke="#38BDF8" stroke-width="6" />
  <path d="M390 212V228L404 236" stroke="#38BDF8" stroke-width="6" stroke-linecap="round" stroke-linejoin="round" />
  <defs>
    <linearGradient id="bg" x1="58" y1="20" x2="754" y2="430" gradientUnits="userSpaceOnUse">
      <stop stop-color="#F0F9FF" />
      <stop offset="1" stop-color="#ECFDF5" />
    </linearGradient>
  </defs>
</svg>
